<?xml version="1.0" encoding="utf-8"?>
<!-- Generator: Adobe Illustrator 26.0.1, SVG Export Plug-In . SVG Version: 6.00 Build 0)  -->
<svg version="1.1" id="Layer_1" xmlns="http://www.w3.org/2000/svg" xmlns:xlink="http://www.w3.org/1999/xlink" x="0px" y="0px"
	 viewBox="0 0 250 87.1" style="enable-background:new 0 0 250 87.1;" xml:space="preserve">
<style type="text/css">
	.st0{fill:#A9C9CF;}
	.st1{fill:#2F7F8A;}
</style>
<path class="st0" d="M56.6,43.6c1.6,0.6,2,2.1,2.6,3.5c0-0.4,0-0.8,0-1.2c0-6.3,0-12.6,0-19c0-1-0.2-1.4-1.4-1.4
	c-8.6,0.1-17.2,0.1-25.8,0c-1.3,0-1.8,0.3-1.7,1.7c0.1,3.9,0.1,7.8,0,11.7c0,1.1,0.3,1.4,1.4,1.4c6-0.1,12,0,18,0
	c0.5,0,1.1-0.2,1.5,0.2c-7.4,0.1-14.9,0.1-22.3,0c-0.6,0-0.9-0.2-0.9-0.9c0-5.1,0-10.3,0-15.4c0-0.9,0.5-0.9,1.1-0.9
	c4.1,0,8.1,0,12.2,0c4.9,0,9.9,0.2,14.8-0.1c3.7-0.2,5.6-2.8,5-6.4c0-0.2,0-0.3-0.1-0.5c2.3,0.7,2.7,3.7,2.3,5.4
	c-0.4,1.5-1.2,2.7-2.7,3.2c-0.9,0.3-1.1,0.9-1.1,1.8c0,11.6,0,23.2,0,34.8c0,1.5,0.1,3-0.5,4.4c0.4-5.2,0.1-10.3,0.2-15.5
	c0-0.6,0-1.2,0-1.9c-0.4,0.1-0.4,0.5-0.5,0.7c-0.8,2.5-2.4,3.7-5.1,3.7c-7.2,0-14.4,0.1-21.7,0c-1.3,0-1.6,0.4-1.6,1.6
	c0,7.4,0,14.8,0,22.1c-1,0.3-1.5,0.1-1.3-0.9c0.8-6.8,0.2-13.6,0.4-20.4c0-0.6,0-1.1,0-1.7c0.1-1.2,0.6-1.6,1.8-1.5
	c7.3,0.2,14.6,0.1,21.9,0.1c3.1,0,4.9-2.7,4-5.7C57.1,45.5,56.6,44.6,56.6,43.6z"/>
<path class="st1" d="M58.8,65.8c-1.3,6.1-7,10.6-13.8,10.8c-5,0.1-10,0-15,0c-0.4-0.4-0.4-0.9-0.4-1.5c0-6.7,0-13.4,0-20.2
	c0-2.3,0.2-2.5,2.5-2.5c7,0,13.9,0,20.9,0c1,0,1.9-0.2,2.8-0.6c1.1-0.4,1.7-1.2,2.1-2.2c0.2-0.6,0.3-1.3,1-1.6
	c0.3,0.4,0.2,0.9,0.2,1.3c0,4.6,0,9.2,0,13.8C59.2,64.1,58.9,64.9,58.8,65.8z"/>
<path class="st1" d="M101.1,49.9c0,3,0,6.1,0,9.1c0,0.8,0.1,1.6,0.5,2.3c0.4,0.8,1,1.2,1.9,1.2s1.5-0.5,1.8-1.3c0.4-1,0.4-2,0.3-3
	c-0.1-1.4,0-2.9-0.1-4.3c0-0.9,0.4-1.1,1.2-1.1c2.3,0,4.7,0.1,7,0c1,0,1.3,0.4,1.2,1.3c-0.1,1.8-0.1,3.5,0,5.3
	c0.3,5.7-3.5,9.5-9.2,10.3c-2.1,0.3-4.2,0.1-6.3-0.4c-4.1-0.9-6.2-3.7-7.1-7.6c-0.3-1.3-0.5-2.7-0.5-4.1c0-4.7,0-9.5,0-14.2
	c0-1.8,0.2-3.5,0.6-5.2c1-4.5,3.7-7.1,8.3-7.7c3.7-0.5,7.3-0.3,10.5,2c2.2,1.5,3.4,3.6,3.6,6.3c0.1,2.1,0,4.2,0.1,6.3
	c0,0.7-0.2,0.9-0.9,0.9c-2.5,0-5,0-7.5,0c-0.9,0-1-0.4-1-1.1c0-1.9,0.2-3.8-0.1-5.7c-0.2-1.4-1.1-2-2.4-1.7
	c-0.8,0.2-1.2,0.6-1.5,1.4c-0.2,0.7-0.3,1.4-0.3,2.1C101.1,43.8,101.1,46.8,101.1,49.9z"/>
<path class="st1" d="M14.4,74c-3.2-2.3-5.1-5.2-5.9-8.8c-0.2-0.9-0.3-1.7-0.3-2.6c0-14.2-0.1-28.5,0-42.7c0-6.8,4.7-12.5,11.4-13.9
	c1.3-0.3,2.7-0.3,4.1-0.3c6.7,0,13.5,0,20.2,0c5,0,9.3,1.5,12.5,5.5c0.4,0.5,0.8,1,1.1,1.8c-1.2-0.1-2.3-0.1-3.4-0.2
	c-10.5,0-21.1,0-31.6,0c-0.5,0-1,0-1.4,0.1c-4.8,0.7-6.5,2.8-6.6,7.9c-0.1,2.6,0,5.3,0,7.9c0,14.7,0,29.4,0,44
	C14.4,73.1,14.4,73.4,14.4,74z"/>
<path class="st1" d="M189.2,38.4c0.5-2.8,0.9-5.6,1.4-8.4c0.3-1.7,0.6-3.4,0.8-5.1c0.1-0.9,0.5-1.1,1.4-1.1c2.2,0.1,4.3,0.1,6.5,0
	c1.1,0,1.3,0.3,1.1,1.3c-2.3,9.5-4.5,19.1-6.8,28.6c-0.2,0.9-0.2,1.8-0.2,2.7c0,3.9,0,7.7,0,11.6c0,0.9-0.3,1.2-1.2,1.2
	c-2.1-0.1-4.2-0.1-6.3,0c-0.9,0-1.1-0.3-1.1-1.1c0-3.8-0.1-7.6,0-11.3c0.1-3.4-1.1-6.6-1.8-9.8c-1.7-7.4-3.5-14.7-5.2-22
	c-0.2-1,0.1-1.1,0.9-1.1c2.2,0,4.4,0.1,6.6,0c1,0,1.4,0.4,1.5,1.3c0.6,4.3,1.3,8.5,2,12.7c0,0.2,0.1,0.3,0.2,0.5
	C188.9,38.4,189.1,38.4,189.2,38.4z"/>
<path class="st1" d="M124.3,23.9c1,0,2,0.1,3,0c1.1-0.1,1.6,0.2,1.5,1.4c-0.1,1.8,0,3.5,0,5.3c0,0.9,0.3,1.3,1.2,1.2
	c1.2-0.2,1.6,0.2,1.5,1.5c-0.1,1.5-0.1,3,0,4.5c0.1,1-0.3,1.4-1.3,1.2c-1.2-0.2-1.5,0.3-1.5,1.5c0.1,6.8,0,13.5,0,20.3
	c0,1.8,0.1,1.9,1.9,1.9c0.5,0,0.7,0.1,0.7,0.7c0,1.7,0,3.3,0,5c0,0.5-0.2,0.7-0.7,0.8c-2.3,0.5-4.5,0.8-6.8,0.4
	c-2.5-0.5-3.7-1.7-4-4.2c-0.1-0.9-0.2-1.8-0.2-2.8c0-7.4,0-14.8,0-22.1c0-1.1-0.3-1.6-1.4-1.4c-1,0.2-1.3-0.3-1.3-1.3
	c0.1-1.6,0-3.3,0-4.9c0-0.8,0.2-1.2,1.1-1c1.4,0.3,1.7-0.4,1.6-1.7c-0.1-1.7,0-3.4,0-5.1c0-0.8,0.3-1.1,1.1-1.1
	C122,23.9,123.1,23.9,124.3,23.9z"/>
<path class="st1" d="M56.3,43.1c-0.3-0.4-0.8-0.8-1.3-1.3c-1.5-1.1-3-1.3-3.9-1.4c-0.5-0.2-1-0.1-1.4-0.1c-6,0-12,0-18.1,0
	c-1.8,0-1.9-0.1-1.9-1.8c0-3.7,0-7.5,0-11.2c0-1.9,0.4-2.3,2.4-2.3c6.5,0,12.9,0,19.4,0c2,0,4.1,0,6.1,0c1.5,0,1.7,0.2,1.7,1.7
	c0,6.5,0,12.9,0,19.4c0,0.8,0,0.7,0,0.9c-0.3,7.1-5.2,12-9.5,15.2c1.6-1.5,5.1-5.3,6.4-11.2C56.8,47.7,56.6,44.9,56.3,43.1z"/>
<path class="st1" d="M237.9,34c1-2.1,2.6-3.4,4.9-3.8c1.4-0.3,1.6-0.1,1.6,1.3c0,1.8,0,3.5,0,5.3c0,0.9-0.3,1.1-1.1,1.2
	c-1.4,0-2.7,0.3-4,0.7c-1.2,0.3-1.7,0.9-1.7,2.2c0.1,9,0,17.9,0.1,26.9c0,1.1-0.2,1.5-1.4,1.5c-2.2-0.1-4.4-0.1-6.6,0
	c-0.9,0-1.2-0.2-1.2-1.1c0-12.2,0-24.3,0-36.5c0-0.9,0.2-1.3,1.2-1.2c2.3,0.1,4.7,0.1,7,0c0.9,0,1.1,0.3,1.1,1.2
	C237.7,32.5,237.8,33.3,237.9,34C237.7,34,237.8,34,237.9,34z"/>
<path class="st1" d="M170,33.8c1.3-1.9,2.9-3.2,5.1-3.6c1.5-0.3,1.6-0.2,1.6,1.3c0,1.7-0.1,3.3,0,5c0.1,1-0.2,1.5-1.3,1.5
	c-1.3,0-2.6,0.3-3.9,0.7c-1.1,0.3-1.5,0.9-1.5,2.1c0.1,9,0,18,0.1,27c0,1.2-0.3,1.5-1.5,1.5c-2.2-0.1-4.4-0.1-6.6,0
	c-0.9,0-1.2-0.2-1.2-1.1c0-12.2,0-24.3,0-36.5c0-0.9,0.2-1.2,1.2-1.2c2.3,0.1,4.6,0.1,6.9,0c0.9,0,1.3,0.2,1.2,1.2
	C170,32.3,170,33.1,170,33.8z"/>
<path class="st0" d="M19.2,77c-1.4-1-2-2.5-2.2-4c-0.1-1.4-0.3-2.8-0.3-4.2c0-14.8,0-29.5,0-44.3c0-1.4,0.1-2.9,0.5-4.3
	c0.8-3.5,2.8-5,6.3-5c9.7-0.2,19.4-0.1,29.1,0c1.9,0,3.7,0.6,4.6,2.8C52,17.1,47,17.6,41.9,17.5s-10.1,0-15.2,0
	c-1.1,0-2.1,0.2-3.1,0.4c-3,0.8-4.8,3.3-4.8,6.7c0,11.2,0,22.3,0,33.5c0,4.8,0,9.6,0,14.4C18.8,74,18.8,75.5,19.2,77z"/>
<path class="st1" d="M56.6,43.6c0.2,0.7,0.5,1.4,0.8,2.1c1.3,2.8,0.1,7-4.3,7c-6.8,0-13.6,0-20.3,0c-0.4,0-0.8,0-1.2,0
	c-1.7-0.2-1.7-0.3-1.7,1.5c0,6.2,0,12.5,0,18.7c0,0.9,0,1.8-0.4,2.7c-0.4,0.9-0.1,1.3,0.9,1.1c-0.5,0.7-0.5,1.5-0.7,2.2
	c-0.9,2.5-2.7,3.9-5.4,4.2c-2.4,0.2-4.5-0.5-6.2-2.8c1,0.2,1.7,0.5,2.4,0.5c4.4,0.4,7.3-2.2,7.5-6.8c0.2-3.2,0.1-6.5,0.1-9.7
	c0-4,0-7.9,0-11.9c0-1.8,0-1.8,1.9-1.8c6.4,0,12.8,0,19.2,0c0.6,0,1.1,0,1.7,0c4.5-0.1,6.6-2.8,5.4-7.1
	C56.4,43.5,56.5,43.5,56.6,43.6z"/>
<path class="st0" d="M54,45c-1.3-0.5-2.6-0.6-4-0.6c-6.8,0-13.7,0-20.5,0c-0.9,0-1.5-0.1-1.5-1.3c0-1,0.3-1.4,1.4-1.4
	c2.9,0.1,5.7,0,8.6,0c3.3,0,6.7-0.1,10,0c2.2,0.1,4.4,0.3,5.8,2.4C54,44.4,54.2,44.5,54,45z"/>
<path class="st1" d="M88.5,39.1c0-3.7-1.9-6.4-5.4-7.9c-3.5-1.5-7-1.3-10.6-0.4c-3.3,0.8-5.2,3-5.9,6.2c-0.3,1.2-0.3,2.5-0.4,3.8
	c-0.1,1,0.3,1.4,1.3,1.4c1.7-0.1,3.4,0,5.1,0c2.5,0,2.5,0,2.6-2.5c0.1-1.5,0.8-2.3,1.8-2.4c1,0,1.9,0.8,2,2.2c0.1,1.3,0,2.5,0.1,3.8
	c0,0.8-0.2,1.2-1.1,1.5c-2.4,0.7-4.7,1.5-7,2.5c-2.2,1-3.9,2.5-4.6,4.8c-1.4,4.7-1.5,9.5,0.6,14c1.9,4.2,8.2,4.8,10.9,1.1
	c0.3-0.5,0.6-0.9,0.9-1.4c0.1,0,0.2,0.1,0.3,0.1c0,0.7,0.1,1.5,0,2.2c-0.1,0.9,0.2,1.1,1.1,1.1c2.3,0,4.7,0,7,0
	c0.8,0,1.2-0.2,1.2-1.1C88.6,58.5,88.6,48.8,88.5,39.1z M79.2,54.9L79.2,54.9c-0.1,1.8,0,3.6-0.1,5.4c-0.1,1-0.4,2-1.7,2.1
	c-1.3,0.1-1.9-0.7-2-1.8c-0.3-2.8-0.5-5.6,0.1-8.4c0.3-1.6,1.6-2.4,2.9-3c0.7-0.3,0.8,0.1,0.8,0.7C79.2,51.6,79.2,53.3,79.2,54.9z"
	/>
<path class="st1" d="M157.3,41.5c0-1-0.2-1.9-0.4-2.9c-1.3-5.9-6.1-9-12.8-8.5c-5.8,0.5-9.9,4.8-10,10.6c-0.1,3.1,0,6.2,0,9.2l0,0
	c0,3,0,6,0,9c0,0.2,0,0.4,0,0.7c0.3,4.9,3,8.5,7.5,9.5c2.3,0.6,4.7,0.6,7.1,0.2c5.1-0.9,7.9-4,8.4-9.1
	C157.7,54.1,157.3,47.8,157.3,41.5z M147.9,59.7c0,1.8-0.8,2.7-2.2,2.7c-1,0-1.7-0.5-2-1.4c-0.2-0.7-0.2-1.4-0.2-2.1
	c0-5.9,0-11.9,0-17.8c0-0.8,0.1-1.6,0.3-2.3c0.2-0.9,0.8-1.5,1.9-1.5c1,0,1.6,0.5,1.9,1.5c0.2,0.6,0.3,1.3,0.3,1.9
	c0,3.1,0,6.2,0,9.2C147.9,53.2,147.9,56.5,147.9,59.7z"/>
<path class="st1" d="M224.7,39.1c0-3.8-1.9-6.5-5.5-8c-4.1-1.6-8.2-1.4-12.2,0.2c-1.8,0.7-3,2.1-3.7,3.9c-0.7,1.9-0.9,3.8-0.9,5.8
	c0,0.8,0.3,1,1,1c1.8,0,3.5,0,5.3,0c2.5,0,2.5,0,2.7-2.5c0.1-1.5,0.8-2.3,1.8-2.4c1.1,0,2,1,2,2.5c0,1.2,0,2.4,0,3.6
	c0,0.8-0.2,1.3-1.1,1.5c-2.4,0.8-4.8,1.5-7.1,2.5c-2.1,1-3.7,2.4-4.4,4.6c-1.5,4.7-1.4,9.4,0.5,13.9c1.8,4.3,7.9,5,10.9,1.5
	c0.4-0.4,0.5-1,1.1-1.4c0.4,0.8,0.2,1.5,0.2,2.2c-0.1,0.9,0.3,1.1,1.1,1.1c2.2,0,4.5-0.1,6.7,0c1,0,1.4-0.2,1.4-1.3
	C224.7,58.4,224.7,48.7,224.7,39.1z M215.3,55.1L215.3,55.1c0,1.7,0,3.3-0.1,5c-0.1,1.5-0.7,2.3-1.8,2.3c-1.2,0-2-0.7-2.1-2.2
	c-0.2-2.4-0.2-4.7,0-7.1c0.2-1.8,1.3-3,2.9-3.8c0.7-0.4,1-0.2,1,0.6C215.3,51.7,215.3,53.4,215.3,55.1z"/>
</svg>
