<?xml version="1.0" encoding="utf-8"?>
<!-- Generator: Adobe Illustrator 26.0.1, SVG Export Plug-In . SVG Version: 6.00 Build 0)  -->
<svg version="1.1" id="Layer_1" xmlns="http://www.w3.org/2000/svg" xmlns:xlink="http://www.w3.org/1999/xlink" x="0px" y="0px"
	 viewBox="0 0 595.3 172.6" style="enable-background:new 0 0 595.3 172.6;" xml:space="preserve">
<style type="text/css">
	.st0{fill:#2F7F8A;}
	.st1{fill:#38AF79;}
	.st2{fill:#34AE78;}
	.st3{fill:#37AF78;}
	.st4{fill:#34AE76;}
	.st5{fill:#3EB17C;}
	.st6{fill:#3156A3;}
	.st7{fill:#6892CC;}
	.st8{fill:#749CD2;}
</style>
<g>
	<path class="st0" d="M104.5,135.2c-2.6,4.3-5.2,8.6-7.8,12.9c-0.2,0.4-0.4,0.7-0.7,1.1c-0.5,0.8-1.1,1.5-1.6,2.2
		c-0.5-0.8-1-1.6-1.5-2.4c-3-4.9-5.9-9.9-8.9-14.8c-2.1-3.5-4.4-6.9-6.8-10.5c-0.5,0.7-1.1,1.3-1.6,2.1c-3.9,6.6-7.7,13.1-11.6,19.7
		c-1.3,2.2-2.7,4.2-4.2,6.4c-1.4-2.3-2.9-4.5-4.1-6.8c-4-7.5-8-15-11.9-22.6c-2.4-4.6-4.8-9.2-7.1-13.9c-1.9-3.6-3.8-7.3-5.6-10.9
		c-2.7-5.4-5.4-10.8-8.1-16.1c-2-4-4.1-8-6.2-12c-1-1.9-2.1-3.8-3.2-5.7c-0.6-1.1-0.4-1.4,0.9-1.4c6.1,0,12.3,0,18.4,0.1
		c0.5,0,1.3,0.4,1.6,0.9c1.2,2,2.3,4,3.3,6.1C41.5,76.6,45,83.8,48.6,91c2.2,4.3,4.4,8.7,6.6,13c2,3.8,4,7.5,6.1,11.4
		c1.2-1.8,2.5-3.5,3.7-5.3c3.7-5.9,7.3-11.9,11-17.9c1.2-1.9,1.4-1.9,2.5,0c3.6,6.3,7.2,12.6,10.9,18.9c2,3.4,4.2,6.8,6.2,10.1
		C98.6,125.8,101.6,130.5,104.5,135.2z"/>
	<path class="st1" d="M99.6,100.8c-1.7-2.6-3.3-5.1-4.8-7.7c-2.4-4-4.7-8-7-12c-1.5-2.7-0.6-5.4,2.4-6.3c1.9-0.6,3.9-0.9,5.9-1
		c23.3-0.1,46.7-0.1,70,0c0.5,0,1.1,0.1,1.6,0.2c-0.3,0.5-0.4,1.1-0.8,1.6c-3.8,4.5-7.5,9.1-11.4,13.5c-0.7,0.8-2.2,1.1-3.3,1.1
		c-14.3,0.1-28.6,0.1-42.9,0c-1.9,0-3.1,0.5-4.1,2.3C103.6,95.2,101.6,97.9,99.6,100.8z"/>
	<path class="st0" d="M42.3,24.4c0.7-4.2,4.4-8,8.5-8.2c5-0.3,10.1-0.3,15.1-0.3c17.1,0,34.1,0,51.2-0.1c2.2,0,3.9,0.6,5.4,2.3
		c4.6,5.1,9.4,10.1,14.2,15.2c1.7,1.8,3.5,3.7,5.2,5.5c0.3,0.4,0.4,0.9,0.6,1.4c-0.4,0.1-0.9,0.3-1.3,0.3c-6.1,0-12.2,0-18.2,0
		c-2.5,0-3.9-1.4-3.9-4c0-4,0-8,0-12c0-1.3-0.2-1.8-1.7-1.8c-21.3,0-42.7,0-64,0c-2.1,0-3.2,1.2-4.1,2.9c-0.1,0-0.2,0-0.3,0
		c-0.2,0.6-0.5,1.3-0.5,1.9c0,11,0,22.1,0,33.1c0,0.6,0.2,1.2,0.4,1.7c0,0.4,0,0.9,0,1.3c-0.1,0.1-0.2,0.3-0.4,0.4
		c-1.8,0-3.6,0-5.4,0c0-12.5,0-24.9,0-37.4C43.1,25.9,42.6,25.1,42.3,24.4z"/>
	<path class="st1" d="M336.5,71.5c0.1,0.6,0.3,1.3,0.3,1.9c0,5.4,0,10.7,0,16.7c2.2-2.9,4.9-4.3,7.9-5c10.5-2.3,21.2,3.6,21.6,16.6
		c0.1,2.4-0.2,5-0.9,7.3c-1.8,7.1-8,11.7-15.4,12c-5.3,0.2-9.9-1.3-13.4-5.4c-0.2,0.7-0.5,1.4-0.4,2.1c0.1,1.6-0.4,2.1-2.1,2.1
		c-1.8-0.1-3.6,0.2-5.5,0.3l0,0c0-15.6,0-31.1,0-46.7c0-0.2-0.1-0.5,0-0.6c0.3-0.4,0.7-1,1.1-1.1c2.1-0.2,4.2-0.3,6.4-0.4l0.1,0.2
		l0.2-0.1C336.5,71.7,336.5,71.6,336.5,71.5z M346.7,113.7c5.7,0,10.6-4,10.6-10.8c0-6-4.4-10.7-10.3-10.7
		c-6.2,0-10.4,4.2-10.5,10.5C336.5,109.3,340.5,113.6,346.7,113.7z M336.4,72.9c-0.1,0-0.1-0.1-0.2-0.1c0,5.6,0,11.2,0,16.8
		c0.1,0,0.1,0,0.2,0C336.4,84,336.4,78.5,336.4,72.9z"/>
	<path class="st1" d="M237.9,81.5c1.1-3.1,2.2-6.3,3.3-9.4c0.1-0.3,0.8-0.6,1.3-0.6c2.6-0.1,5.1-0.1,7.7,0c0.5,0,1.3,0.6,1.5,1.2
		c2.3,6.7,4.4,13.5,6.7,20.2c1.7,5.1,3.6,10.1,5.5,15.5c2-6.7,4-13.1,6-19.6c1.7-5.5,3.3-10.9,5.1-16.4c0.1-0.4,0.8-0.9,1.3-0.9
		c3-0.1,5.9,0,9.1,0c-0.6,2.1-1.2,3.9-1.8,5.8c-0.8,0.8-3.1,0.6-2.2,2.4c1,2.2-0.5,3.7-0.9,5.6c0,0.2-0.6,0.3-0.9,0.5
		c-0.5,0.2-1.4,0.3-1.5,0.6c-0.1,0.4,0.2,1.1,0.5,1.6c0.8,1.3-0.6,5-2.1,5.6c-0.5,0.2-1,1.1-0.9,1.6c0.2,1.1,0.7,2.1,1,3.2
		c-2.3,7-4.5,14-6.9,21c-0.1,0.4-0.9,0.9-1.4,0.9c-2.8,0.1-5.7,0-8.5,0.1c-1.2,0-1.5-0.5-1.8-1.4c-1.2-4-2.4-8-3.8-12
		c-2.4-7-4.9-14-7.3-21c-0.1-0.3-0.3-0.6-0.5-0.9c-0.2-0.3-0.3-0.7-0.5-0.7c-1.1-0.1-2.2,0-3.3,0C240.4,84.2,238.8,83.4,237.9,81.5z
		"/>
	<path class="st0" d="M375.8,95.9c0-7.5,0.1-15,0-22.5c0-1.6,0.4-1.9,2-1.9c10.5,0.1,21,0.1,31.5,0c1.4,0,1.8,0.4,1.7,1.7
		c-0.2,2,0.6,4.7-0.4,5.8c-1,1-3.7,0.5-5.7,0.5c-6,0-12,0-18,0c-1.4,0-1.9,0.2-1.9,1.8c0.1,3.2,0.1,6.5,0,9.7
		c-0.1,1.7,0.6,2.1,2.1,2.1c5.9-0.1,11.7,0,17.6-0.2c1.9-0.1,2.4,0.5,2.2,2.3c-0.1,1.4-0.1,2.8,0,4.1c0.1,1.3-0.4,1.6-1.7,1.6
		c-5.9-0.1-11.7,0.1-17.6-0.1c-2.3-0.1-2.7,0.7-2.6,2.7c0.1,5.1,0,10.2,0.1,15.3c0,1.2-0.2,1.7-1.6,1.7c-1.9-0.1-3.9-0.1-5.8,0
		c-1.4,0.1-1.9-0.3-1.9-1.8C375.9,111,375.8,103.5,375.8,95.9C375.8,95.9,375.8,95.9,375.8,95.9z"/>
	<path class="st1" d="M320.8,112.9c-0.4,0.4-0.8,0.7-1.1,1c-5.7,7-16.4,9.3-24.7,5.6c-9.7-4.3-13.3-14.8-9.4-23.9
		c3-6.9,8.8-10.6,16.5-10.9c5-0.2,9.9,0.8,13.6,4.3c4.4,4,6.2,9.4,5.6,15.3c0,0.4-1.1,0.9-1.7,0.9c-7.8,0.1-15.6,0.1-23.4,0.1
		c-2.9,0-3.1,0.5-1.9,3.2c2.9,6.5,13,7.8,17.6,2.2c1-1.2,1.7-1.3,2.9-0.6C316.8,111.1,318.8,111.9,320.8,112.9z M294,99.3
		c5.8,0,11.6,0,17.4,0c0.3,0,0.8-0.7,0.8-1.1c-0.3-2.9-2.6-5.3-6-6.2C300.1,90.4,294.6,93.7,294,99.3z M294.4,99.7
		c0,0.1-0.1,0.1-0.1,0.2c5.7,0,11.5,0,17.2,0c0-0.1,0-0.1,0-0.2C305.8,99.7,300.1,99.7,294.4,99.7z"/>
	<path class="st2" d="M104.5,135.2c-3-4.7-6-9.3-8.9-14c2.7-4.4,5.5-8.8,8.2-13.2c1.8-2.9,3.6-5.9,5.2-8.9c0.7-1.3,1.6-2,3.2-1.9
		c10.2,0.1,20.4,0,30.6,0.1c0.6,0,1.3,0.2,1.9,0.4c-0.3,0.6-0.6,1.2-1,1.7c-0.9,1.3-1.8,2.6-2.7,3.9c-1.8,2.5-3.5,5-5.6,7.4
		c-0.7,0.8-2.1,1.3-3.2,1.3c-3.2,0.2-6.5,0.4-9.7,0c-3.2-0.4-4.7,1.2-6.1,3.5c-1,1.7-1.9,3.3-2.9,5
		C110.6,125.4,107.6,130.3,104.5,135.2z"/>
	<path class="st0" d="M436.2,116.2c-0.5,0.4-1,0.6-1.3,0.9c-3.5,4.8-13.9,4.6-18.2,2.2c-5.4-3-5.9-9.3-4.1-13.2
		c1.8-3.9,5.4-5.4,9.3-6.1c3.9-0.6,7.9-0.7,11.9-0.9c2.1-0.1,2.9-0.8,2.1-2.7c-0.8-1.9-1.8-3.8-4.2-4.4c-4.4-1.1-8.3-0.4-10.9,3.2
		c-0.2,0.3-1,0.5-1.5,0.3c-1.7-0.5-3.3-1.3-5-1.9c-1.1-0.4-1.4-1-0.7-2c2.6-3.7,6.1-5.9,10.6-6.7c4-0.7,7.8-0.5,11.6,0.7
		c4.7,1.5,8.6,5.7,8.7,11.7c0,7.2,0.1,14.3,0.1,21.5c0,1-0.2,1.4-1.2,1.3c-1-0.1-1.9,0-2.9,0C436.5,120.4,436.5,120.4,436.2,116.2z
		 M426.8,115.1c4.8-0.4,7.7-2.6,9.2-7c0.6-2,0-3.2-1.8-3.2c-2.1,0-4.3-0.1-6.4,0.2c-2,0.3-4,1.1-5.7,2c-2.3,1.2-2.2,4.9,0.1,6.1
		C423.5,114.1,425.2,114.5,426.8,115.1z"/>
	<path class="st0" d="M554.3,102.8c-0.3,2-0.4,4-1,5.9c-2.7,9.1-11.6,13.4-20.8,12.3c-5.6-0.6-10.3-2.8-13.5-7.6
		c-3-4.6-4.5-9.7-2.7-15c2.8-8.2,7.3-12.7,17.1-13.6c6.9-0.6,12.8,1.8,17.4,7.1C552.7,94,554.1,98.8,554.3,102.8z M525,102.9
		c0.2,7.1,3.7,10.3,10,10.7c5.3,0.4,10.4-4.6,10.4-10.7c0-6.1-4.6-11-10.5-10.7C528.8,92.6,525.2,96,525,102.9z"/>
	<path class="st0" d="M468,121.2c-6-0.2-12.4-2.5-15.7-9.6c-3.2-6.8-2.8-13.8,1.7-19.8c4.4-5.9,10.9-7.6,18-6.8
		c4.3,0.5,8,2.3,11.1,5.3c0.2,0.2,0.4,0.4,0.5,0.6c2.3,2.7,1.9,2.8-1.2,4.4c-3.2,1.7-5.1,1.4-7.8-1.1c-4.7-4.3-13.8-1.4-15.1,5.8
		c-0.4,2.1-0.2,4.4,0.1,6.5c1.2,6.7,10.6,9.5,15.4,5.1c0.4-0.4,1.1-0.5,1.3-1c1.2-2.8,2.9-1.5,4.6-0.7c0.4,0.2,0.9,0.4,1.3,0.6
		c1,0.5,2.1,1,3.1,1.5c-0.7,1.2-1.2,2.5-2.1,3.5C479.5,119.5,475.2,121.2,468,121.2z"/>
	<path class="st0" d="M168.4,151.7c-0.8-0.1-2.7,0.9-2.5-1.9c0.2-2.6,0-2.6,2.7-2.6c4.5,0,7.9-2.5,9.2-6.6c1.8-6.1-2.4-11.9-8.9-12
		c-1.3,0-1.9-0.2-2-1.8c-0.3-5.3-3.5-8.6-8.3-10.2c-5.3-1.7-10.1-0.7-13.7,4c-1,1.3-1.8,2.7-2.3,4.2c-0.5,1.4-0.9,1.9-2.5,1.5
		c-3.3-0.9-6.3,1.1-6.6,4.6c-0.2,1.9-0.7,2.9-3,2.9c-3.1,0-5.8,2.9-6.1,6.3c-0.4,3.1,1.4,5.9,4.4,7c1.1,0.4,1.9,2.7,1.1,4
		c-0.2,0.4-1.5,0.4-2.2,0.2c-8.9-2.1-10.1-13.1-5.2-17.9c1.4-1.4,3.3-2.1,5-3.2c0.6-0.4,1.2-0.8,1.5-1.4c1.5-4.1,4.6-6.1,8.6-7.1
		c0.7-0.2,1.5-0.7,1.8-1.3c4.4-8.8,16.2-11.5,24.2-6.8c3.7,2.2,6.1,5.3,7.2,9.4c0.3,0.9,0.7,1.2,1.6,1.4c11.7,3,13.6,15.8,7.3,22.5
		C176.8,150.1,173.3,152.1,168.4,151.7z"/>
	<path class="st0" d="M503.4,80.9c0,4.7,0,4.7,4.8,4.7c4.5,0,4.3,0,4.5,4.5c0.1,2.3-0.7,2.8-2.7,2.6c-1.6-0.2-3.3,0.1-5,0
		c-1.3-0.1-1.6,0.4-1.6,1.6c0.1,4.3,0.1,8.7,0,13c-0.1,4.6,1.5,6.7,7.3,5.8c2.1-0.3,2.4,0.2,2.2,2c0,0.2,0,0.4,0,0.6
		c-0.1,4.8-0.1,4.8-4.9,4.9c-4.2,0.1-8.2-0.3-11.3-3.9c-1.8-2-2.2-4.4-2.2-6.8c-0.1-5.2-0.1-10.5,0-15.7c0-1.3-0.3-1.7-1.6-1.6
		c-1.6,0.1-3.7,0.5-4.5-0.4c-0.8-0.8-0.2-3-0.4-4.5c-0.2-1.7,0.4-2.2,2.1-2.2c4.4,0.1,4.4,0,4.4-4.4c0-5,0-5,5-5
		C503.4,76.1,503.4,76.1,503.4,80.9z"/>
	<path class="st1" d="M235.8,114.5c0,0.1,0,0.1,0,0.2c-1.5,5.6-1.5,5.7-7.3,5.6c-1.9,0-4.2,0.6-5.4-0.3c-1.2-0.9-1.2-3.3-1.8-5
		c-2.8-8.8-5.6-17.6-8.5-26.3c-1.8-5.6-3.8-11.2-5.8-17.2c3.5,0,6.6,0,9.8,0c0.3,0,0.8,0.7,0.9,1.1c2.4,7.7,4.7,15.4,7,23.1
		c0.9,3,1.9,5.9,2.8,8.9c-0.3,0.8-0.4,1.7-0.8,2.5c-0.4,0.6-1,1.1-1.6,1.6c0.6,0.5,1.2,1,1.9,1.4c0.5,0.3,1.2,0.2,1.8,0.3
		C231.8,110.7,234.1,112,235.8,114.5z"/>
	<path class="st0" d="M568.6,120.3c-2.5,0-5,0-7.5,0c0-11.3,0-22.5,0-33.8c-0.1,0-0.3,0-0.4,0c0,11.3,0,22.5,0,33.8
		c-0.1-0.4-0.4-0.8-0.4-1.3c0-10.5,0-20.9,0-31.4c0-1.6,0.4-2.2,2-2.1c1.9,0.2,3.7,0,5.6,0.1c0.4,0,1,0.7,1.1,1.1
		c0.1,1.3,0.1,2.6,0.1,4c0.9-0.9,1.8-1.7,2.6-2.5c2.9-2.8,6.3-3.4,10.1-3.1c0.4,0,0.7,0.7,1,1.1c0.1,0.2,0,0.5,0,0.8
		c0,1.9,0.6,4.2-0.3,5.4c-0.6,0.9-3.3,0.4-5,0.5c-3.8,0.2-8.6,4.2-8.4,9c0.2,5.3,0,10.6,0,15.9c0,0.7-0.2,1.5-0.3,2.2
		c0-6.3,0-12.6,0-18.8c-0.1,0-0.3,0-0.4,0C568.6,107.7,568.6,114,568.6,120.3z"/>
	<path class="st1" d="M235.8,114.5c-1.6-2.5-4-3.8-6.9-4.1c-0.6-0.1-1.3,0-1.8-0.3c-0.7-0.3-1.3-0.9-1.9-1.4c0.5-0.5,1.2-1,1.6-1.6
		c0.4-0.7,0.5-1.7,0.8-2.5c0.4,1.2,0.8,2.4,1.2,3.8c0.4-0.8,0.7-1.5,0.9-2.1c0.5,0.3,1.2,1,1.6,0.9c2.5-1,5.1-2,7.4-3.4
		c0.7-0.4,0.7-2,1.1-3c-1.3-0.4-2.6-1.3-4,0c-1.7,1.5-4.3,1.7-5.6,3.9c2.6-7.7,5.2-15.4,7.8-23.2c0.9,1.9,2.5,2.8,4.5,2.9
		c1.1,0.1,2.2,0,3.3,0c0.2,0,0.3,0.5,0.5,0.7c-2.1,6-4.1,12-6.2,18C238.6,107,237.2,110.7,235.8,114.5z M235,110.9
		c0.7-0.5,1.3-1,1.9-1.4c-0.7-0.5-1.4-1.4-2.1-1.4c-0.7,0-1.5,0.9-2.2,1.4C233.2,110,233.9,110.3,235,110.9z"/>
	<path class="st0" d="M79.4,35.5c5.8,0,11.6,0,17.4,0c2.2,0,3.3,1,3.3,2.7c0,1.7-1.2,2.6-3.3,2.6c-11.5,0-23,0-34.6,0
		c-2.2,0-3.4-0.9-3.4-2.7c0-1.8,1-2.7,3.4-2.7C67.9,35.5,73.7,35.5,79.4,35.5C79.4,35.5,79.4,35.5,79.4,35.5z"/>
	<path class="st3" d="M154.1,127.3c1.5-2.8,4-0.5,6-1.2c0.2-0.1,1,0.8,1,1.3c0.1,7.7,0.1,15.4,0,23.1c0,0.4-0.8,1.1-1.3,1.2
		c-1.9,0.1-3.7,0-5.6,0C154.2,143.6,154.2,135.5,154.1,127.3z"/>
	<path class="st0" d="M75.9,52.5c-4.5,0-9.1,0-13.6,0c-2.3,0-3.4-0.9-3.4-2.7c0-1.8,1.1-2.7,3.4-2.7c9.2,0,18.5,0,27.7,0
		c2,0,3.3,1,3.3,2.6c0,1.6-1.3,2.7-3.3,2.7C85.2,52.5,80.5,52.5,75.9,52.5z"/>
	<path class="st4" d="M119.5,66.9c-1-0.7-2.1-1.3-3-2.1c-2.1-1.9-4.1-3.8-6-5.9c-0.4-0.4-0.2-1.8,0.2-2.3c1-1.2,2.4-2,3.9-0.6
		c1.4,1.2,2.8,2.4,4.1,3.7c0.7,0.7,1,0.5,1.6-0.1c4.1-3.9,8.2-7.8,12.3-11.8c1.3-1.2,2.5-1.3,3.8-0.1c1.3,1.2,1,2.4-0.1,3.6
		c-5,4.9-10,9.7-15.1,14.6C120.8,66.3,120.2,66.5,119.5,66.9z"/>
	<path class="st5" d="M150.8,151.7c-1.1,0-2.3,0-3.4,0c-3.4,0-3.4,0-3.6-3.3c0-3.6,0-7.2,0-10.8c0-0.2,0.1-0.4,0.1-0.6
		c0.1-3.3,0.1-3.3,3.3-3.5c0.4,0,0.8,0.1,1.2,0.1c2-0.3,2.5,0.6,2.5,2.5c-0.1,3.3,0,6.6,0.1,9.8c0,1.5,0,3,0,4.5
		C150.8,150.9,150.8,151.3,150.8,151.7z"/>
	<path class="st0" d="M70.7,64.1c-3,0-5.9,0-8.9,0c-2,0-3-0.9-3-2.6c-0.1-1.7,1-2.8,3.1-2.8c5.9,0,11.9,0,17.8,0c1.9,0,3,1,3.1,2.6
		c0.1,1.6-1.2,2.7-3.1,2.8C76.6,64.1,73.7,64.1,70.7,64.1C70.7,64.1,70.7,64.1,70.7,64.1z"/>
	<path class="st5" d="M138,151.8c-4-0.2-4-0.2-4.1-4.4c0-0.1,0-0.1,0-0.2c-0.1-6.9-0.1-6.9,6.9-6.1c0,2.5,0,5.1,0,7.6
		C140.9,151.7,140.9,151.7,138,151.8z"/>
	<path class="st1" d="M336.1,71.6c-2.1,0.1-4.3,0.1-6.4,0.4c-0.4,0-0.8,0.7-1.1,1.1c-0.1,0.1,0,0.4,0,0.6c0,15.6,0,31.1,0,46.7
		c-0.3-0.6-0.7-1.3-0.7-1.9c0-12.7,0-25.4,0-38.1c0-2.5,0.1-5.1,0-7.6c-0.1-1.3,0.4-1.6,1.6-1.5c2.3,0.2,4.7,0.3,7,0.4
		c0,0.1,0,0.1-0.1,0.2C336.3,71.6,336.3,71.6,336.1,71.6z"/>
	<path class="st1" d="M230.1,104.6c1.3-2.1,3.9-2.4,5.6-3.9c1.4-1.3,2.7-0.4,4,0c-0.3,1-0.4,2.6-1.1,3c-2.3,1.4-4.9,2.4-7.4,3.4
		c-0.4,0.1-1.1-0.6-1.6-0.9C229.8,105.7,230,105.2,230.1,104.6z"/>
	<path class="st6" d="M42.3,24.4c0.3,0.8,0.7,1.5,0.7,2.3c0,12.5,0,24.9,0,37.4c-0.3,0-0.6,0-0.8,0C42.3,50.9,42.3,37.6,42.3,24.4z"
		/>
	<path class="st1" d="M276.4,98.4c-0.4-1.1-0.9-2.1-1-3.2c-0.1-0.5,0.4-1.4,0.9-1.6c1.5-0.6,2.9-4.3,2.1-5.6
		c-0.3-0.5-0.6-1.2-0.5-1.6c0.1-0.3,1-0.4,1.5-0.6c0.3-0.1,0.9-0.3,0.9-0.5c0.4-1.8,1.9-3.4,0.9-5.6c-0.8-1.8,1.5-1.6,2.2-2.4
		C281.1,84.3,278.7,91.4,276.4,98.4z"/>
	<path class="st7" d="M48.9,63.7c0-0.4,0-0.9,0-1.3c0-12.3,0.1-24.5,0.1-36.8c0.1,0,0.2,0,0.3,0c0,12.8,0,25.6-0.1,38.5
		c-0.1,0-0.2,0-0.3,0C48.9,63.9,48.9,63.8,48.9,63.7z"/>
	<path class="st0" d="M560.7,120.3c0-11.3,0-22.5,0-33.8c0.1,0,0.3,0,0.4,0c0,11.3,0,22.5,0,33.8C561,120.3,560.8,120.3,560.7,120.3
		z"/>
	<path class="st1" d="M328.6,120.3c1.8-0.1,3.6-0.4,5.5-0.3c1.6,0.1,2.2-0.5,2.1-2.1c-0.1-0.7,0.3-1.4,0.4-2.1
		c0.1,4.6,0.1,4.6-4.4,4.6C331,120.4,329.8,120.4,328.6,120.3z"/>
	<path class="st0" d="M568.6,120.3c0-6.3,0-12.6,0-18.9c0.1,0,0.3,0,0.4,0c0,6.3,0,12.6,0,18.8C568.8,120.2,568.7,120.3,568.6,120.3
		z"/>
	<path class="st8" d="M48.9,64.1c0.1,0,0.2,0,0.3,0c-2.3,0-4.6,0-6.9,0c0.3,0,0.6,0,0.8,0c1.8,0,3.6,0,5.4,0c0,0,0.2,0,0.2,0
		L48.9,64.1z"/>
	<path class="st6" d="M49,25.6c0,12.3-0.1,24.5-0.1,36.8c-0.1-0.6-0.4-1.2-0.4-1.7c0-11,0-22.1,0-33.1C48.5,26.9,48.8,26.3,49,25.6z
		"/>
	<path class="st6" d="M48.9,64.1l-0.2,0c0,0-0.2,0-0.2,0c0.1-0.1,0.2-0.3,0.4-0.4C48.9,63.8,48.9,63.9,48.9,64.1z"/>
	<path class="st1" d="M336.4,72.9c0,5.6,0,11.1,0,16.7c-0.1,0-0.1,0-0.2,0c0-5.6,0-11.2,0-16.8C336.3,72.8,336.4,72.9,336.4,72.9z"
		/>
	<path class="st1" d="M336.1,71.6c0.1,0,0.2,0,0.3,0.1c0,0-0.2,0.1-0.2,0.1L336.1,71.6z"/>
	<path class="st1" d="M294.4,99.7c5.7,0,11.4,0,17.1,0c0,0.1,0,0.1,0,0.2c-5.7,0-11.5,0-17.2,0C294.3,99.9,294.4,99.8,294.4,99.7z"
		/>
	<path class="st1" d="M235,110.9c-1.1-0.6-1.7-1-2.4-1.3c0.7-0.5,1.4-1.4,2.2-1.4c0.7,0,1.4,0.9,2.1,1.4
		C236.3,110,235.7,110.4,235,110.9z"/>
</g>
</svg>
