<?xml version="1.0" encoding="utf-8"?>
<!-- Generator: Adobe Illustrator 26.0.1, SVG Export Plug-In . SVG Version: 6.00 Build 0)  -->
<svg version="1.1" xmlns="http://www.w3.org/2000/svg" xmlns:xlink="http://www.w3.org/1999/xlink" x="0px" y="0px"
	 viewBox="0 0 1122 519.7" style="enable-background:new 0 0 1122 519.7;" xml:space="preserve">
<style type="text/css">
	.st0{fill:#070B0F;}
</style>
<g id="Bg">
</g>
<g id="Object">
	<g>
		<g>
			<rect x="77.9" y="15.1" class="st0" width="20.9" height="474.9"/>
		</g>
		<g>
			<rect x="106.6" y="15.1" class="st0" width="13.1" height="474.9"/>
		</g>
		<g>
			<rect x="997.2" y="15.1" class="st0" width="20.9" height="474.9"/>
		</g>
		<g>
			<rect x="1024.4" y="15.1" class="st0" width="8.2" height="474.9"/>
		</g>
		<g>
			<rect x="1039" y="15.1" class="st0" width="5.1" height="474.9"/>
		</g>
		<g>
			<rect x="135.3" y="15.1" class="st0" width="11.5" height="407.2"/>
		</g>
		<g>
			<rect x="156.7" y="15.1" class="st0" width="26.8" height="407.2"/>
		</g>
		<g>
			<rect x="191.9" y="15.1" class="st0" width="8.5" height="407.2"/>
		</g>
		<g>
			<rect x="208.3" y="15.1" class="st0" width="5.9" height="407.2"/>
		</g>
		<g>
			<rect x="283" y="15.1" class="st0" width="4" height="407.2"/>
		</g>
		<g>
			<rect x="293.7" y="15.1" class="st0" width="7.3" height="407.2"/>
		</g>
		<g>
			<rect x="230.8" y="15.1" class="st0" width="9.1" height="407.2"/>
		</g>
		<g>
			<rect x="257.7" y="15.1" class="st0" width="20.6" height="407.2"/>
		</g>
		<g>
			<rect x="312.9" y="15.1" class="st0" width="16" height="407.2"/>
		</g>
		<g>
			<rect x="342.5" y="15.1" class="st0" width="37.1" height="407.2"/>
		</g>
		<g>
			<rect x="391.3" y="15.1" class="st0" width="11.8" height="407.2"/>
		</g>
		<g>
			<rect x="414" y="15.1" class="st0" width="8.1" height="407.2"/>
		</g>
		<g>
			<rect x="485.8" y="15.1" class="st0" width="3" height="407.2"/>
		</g>
		<g>
			<rect x="493.9" y="15.1" class="st0" width="5.5" height="407.2"/>
		</g>
		<g>
			<rect x="428.2" y="15.1" class="st0" width="12.7" height="407.2"/>
		</g>
		<g>
			<rect x="888.3" y="15.1" class="st0" width="37.1" height="407.2"/>
		</g>
		<g>
			<rect x="937.1" y="15.1" class="st0" width="11.8" height="407.2"/>
		</g>
		<g>
			<rect x="959.8" y="15.1" class="st0" width="8.1" height="407.2"/>
		</g>
		<g>
			<rect x="974" y="15.1" class="st0" width="12.7" height="407.2"/>
		</g>
		<g>
			<rect x="457.7" y="15.1" class="st0" width="15.5" height="407.2"/>
		</g>
		<g>
			<rect x="546.2" y="15.1" class="st0" width="5.8" height="407.2"/>
		</g>
		<g>
			<rect x="613" y="15.1" class="st0" width="4" height="407.2"/>
		</g>
		<g>
			<rect x="637.8" y="15.1" class="st0" width="9.3" height="407.2"/>
		</g>
		<g>
			<rect x="561.8" y="15.1" class="st0" width="10.5" height="407.2"/>
		</g>
		<g>
			<rect x="509.7" y="15.1" class="st0" width="29.7" height="407.2"/>
		</g>
		<g>
			<rect x="589.5" y="15.1" class="st0" width="15.3" height="407.2"/>
		</g>
		<g>
			<rect x="655.7" y="15.1" class="st0" width="17" height="407.2"/>
		</g>
		<g>
			<rect x="688.5" y="15.1" class="st0" width="11.7" height="407.2"/>
		</g>
		<g>
			<rect x="792.2" y="15.1" class="st0" width="4.4" height="407.2"/>
		</g>
		<g>
			<rect x="809.8" y="15.1" class="st0" width="7.9" height="407.2"/>
		</g>
		<g>
			<rect x="826.8" y="15.1" class="st0" width="4.4" height="407.2"/>
		</g>
		<g>
			<rect x="844.4" y="15.1" class="st0" width="3.3" height="407.2"/>
		</g>
		<g>
			<rect x="857.5" y="15.1" class="st0" width="18.3" height="407.2"/>
		</g>
		<g>
			<rect x="709" y="15.1" class="st0" width="18.3" height="407.2"/>
		</g>
		<g>
			<rect x="751.6" y="15.1" class="st0" width="22.4" height="407.2"/>
		</g>
		<g>
			<path d="M187.2,508.6V488h-35.1v-6.7l33.7-48.2h11V480h10.6v8h-10.6v20.6H187.2z M187.2,480v-25.2c0-3.9,0.1-7.9,0.3-11.8h-0.3
				c-2.3,4.4-4.2,7.7-6.3,11.1l-18.5,25.7v0.2H187.2z"/>
			<path d="M277,470c0,25.7-9.5,39.8-26.2,39.8c-14.8,0-24.7-13.8-25-38.8c0-25.3,10.9-39.3,26.2-39.3C268,431.8,277,446,277,470z
				 M236,471.2c0,19.6,6,30.8,15.3,30.8c10.5,0,15.4-12.2,15.4-31.5c0-18.6-4.8-30.8-15.3-30.8C242.5,439.7,236,450.6,236,471.2z"/>
			<path d="M320.2,442.6H320l-13.1,7.1l-2-7.8l16.5-8.8h8.7v75.5h-9.9V442.6z"/>
			<path d="M368.3,489.4c0-9.5,5.7-16.3,15-20.2l-0.1-0.3c-8.4-3.9-12-10.5-12-17c0-12,10.1-20.1,23.3-20.1c14.6,0,22,9.2,22,18.6
				c0,6.4-3.1,13.2-12.4,17.7v0.3c9.4,3.7,15.2,10.3,15.2,19.5c0,13.1-11.3,22-25.7,22C377.8,509.8,368.3,500.4,368.3,489.4z
				 M409,488.9c0-9.2-6.4-13.6-16.6-16.5c-8.8,2.6-13.6,8.4-13.6,15.6c-0.3,7.7,5.5,14.4,15.1,14.4C403,502.4,409,496.7,409,488.9z
				 M380.8,451.2c0,7.5,5.7,11.6,14.4,13.9c6.5-2.2,11.5-6.9,11.5-13.7c0-6-3.6-12.3-12.8-12.3C385.5,439.1,380.8,444.7,380.8,451.2
				z"/>
			<path d="M462.6,442.6h-0.2l-13.1,7.1l-2-7.8l16.5-8.8h8.7v75.5h-9.9V442.6z"/>
			<path d="M596.9,433.1v6.7L564,508.6h-10.6l32.8-66.8v-0.2h-36.9v-8.5H596.9z"/>
			<path d="M669.2,470c0,25.7-9.5,39.8-26.2,39.8c-14.7,0-24.7-13.8-25-38.8c0-25.3,10.9-39.3,26.2-39.3
				C660.2,431.8,669.2,446,669.2,470z M628.2,471.2c0,19.6,6,30.8,15.3,30.8c10.5,0,15.4-12.2,15.4-31.5c0-18.6-4.8-30.8-15.3-30.8
				C634.7,439.7,628.2,450.6,628.2,471.2z"/>
			<path d="M740.4,470c0,25.7-9.5,39.8-26.2,39.8c-14.7,0-24.7-13.8-25-38.8c0-25.3,10.9-39.3,26.2-39.3
				C731.4,431.8,740.4,446,740.4,470z M699.4,471.2c0,19.6,6,30.8,15.3,30.8c10.5,0,15.4-12.2,15.4-31.5c0-18.6-4.8-30.8-15.3-30.8
				C705.9,439.7,699.4,450.6,699.4,471.2z"/>
			<path d="M767.4,501.4c2.2,0.2,4.8,0,8.2-0.3c5.9-0.8,11.5-3.3,15.8-7.3c5-4.5,8.6-11.1,10-20.1H801c-4.2,5.1-10.2,8.1-17.8,8.1
				c-13.6,0-22.3-10.2-22.3-23.1c0-14.3,10.3-26.8,25.8-26.8c15.4,0,25,12.5,25,31.8c0,16.6-5.6,28.2-13,35.4
				c-5.8,5.7-13.8,9.2-22,10.1c-3.7,0.6-7,0.7-9.4,0.6V501.4z M771.1,457.9c0,9.4,5.7,16,14.5,16c6.9,0,12.2-3.4,14.9-7.9
				c0.6-0.9,0.9-2.1,0.9-3.7c0-12.9-4.8-22.8-15.4-22.8C777.2,439.6,771.1,447.2,771.1,457.9z"/>
			<path d="M831.7,489.4c0-9.5,5.7-16.3,15-20.2l-0.1-0.3c-8.4-3.9-12-10.5-12-17c0-12,10.1-20.1,23.3-20.1c14.6,0,22,9.2,22,18.6
				c0,6.4-3.1,13.2-12.4,17.7v0.3c9.4,3.7,15.2,10.3,15.2,19.5c0,13.1-11.3,22-25.7,22C841.2,509.8,831.7,500.4,831.7,489.4z
				 M872.4,488.9c0-9.2-6.4-13.6-16.6-16.5c-8.8,2.6-13.6,8.4-13.6,15.6c-0.3,7.7,5.5,14.4,15.1,14.4
				C866.4,502.4,872.4,496.7,872.4,488.9z M844.2,451.2c0,7.5,5.7,11.6,14.4,13.9c6.5-2.2,11.5-6.9,11.5-13.7
				c0-6-3.6-12.3-12.8-12.3C848.9,439.1,844.2,444.7,844.2,451.2z"/>
			<path d="M903.8,508.6v-6.3l8-7.8c19.3-18.4,28-28.1,28.1-39.5c0-7.7-3.7-14.7-15-14.7c-6.9,0-12.5,3.5-16,6.4l-3.3-7.2
				c5.2-4.4,12.7-7.7,21.4-7.7c16.3,0,23.1,11.2,23.1,22c0,13.9-10.1,25.2-26,40.5l-6,5.6v0.2H952v8.5H903.8z"/>
		</g>
	</g>
</g>
</svg>
